<?xml version="1.0" encoding="utf-8"?>
<!-- Generator: Adobe Illustrator 28.0.0, SVG Export Plug-In . SVG Version: 6.00 Build 0)  -->
<svg version="1.1" id="Layer_1" xmlns="http://www.w3.org/2000/svg" xmlns:xlink="http://www.w3.org/1999/xlink" x="0px"
	y="0px" viewBox="0 0 280 280" style="enable-background:new 0 0 280 280;" xml:space="preserve">
	<style type="text/css">
		.st0 {
			fill: #B5E9FE;
		}

		.st1 {
			fill: #237D9F;
		}

		.st2 {
			fill: #68AEC9;
		}

		.st3 {
			fill: #7EC5E0;
		}

		.st4 {
			fill: #FEFEFD;
		}

		.st5 {
			fill: #FEC22F;
		}

		.st6 {
			fill: #F89933;
		}

		.st7 {
			fill: #FED11E;
		}
	</style>
	<g>
		<path class="st0" d="M0.1,234.9c0-63.3,0-126.6,0-189.8c1.3-2.8,3.7-4,6.6-4.9C47.9,27.8,88.9,14.6,130.1,2
		c7.4-2.3,14.8-1.7,22.1,0.5c38.7,12.1,77.6,23.9,116.2,36.2c4,1.3,8.7,1.3,11.5,5.3c0,63.9,0,127.9,0,191.8c-1.4,2-3.3,3.1-5.6,3.8
		c-30.3,9.3-60.5,19.1-90.8,28.3c-13.5,4.1-26.6,9.3-40.5,11.9c-1.7,0-3.3,0-5,0c-42.2-11.2-83.4-25.5-125.1-38.4
		c-2.4-0.7-4.8-1.4-7.2-2.1C3.2,238.7,1.2,237.4,0.1,234.9z" />
		<path class="st1" d="M141.2,58.9c-0.1-13.5,0.1-27-0.3-40.4c-0.1-4.2,1.6-4.2,4.6-3.2c14.1,4.5,28.2,8.9,42.3,13.3
		c20.9,6.5,41.9,13,62.8,19.5c5.1,1.6,10.1,3.4,15.2,4.8c3.1,0.8,3.8,2.4,3.7,5.4c-0.2,9.7-0.1,19.3-0.1,29c0,44.3,0,88.6,0,132.8
		c0,7.1-0.3,7.4-6.9,5.3c-10.9-3.4-21.8-7-32.7-10.5c-2.5-2.2-1.9-5.2-1.9-7.9c-0.1-16.4-0.2-32.9,0-49.3c0.1-4.6-1.4-6.9-5.9-8.2
		c-9.8-2.6-19.4-5.8-29-8.9c-8.7-2.8-9.1-3.2-9.1-12.2c0-15.5,0-30.9,0-46.4c0-7.9,0-8-7.8-10.3c-10-2.9-20-6.2-29.9-9.4
		C144.3,61.7,142.1,61.2,141.2,58.9z" />
		<path class="st2" d="M49.9,214.8c-7.7,3.7-16.1,5.1-24.1,8c-3.6,1.3-7.3,2.2-11,3.3c-2.7,0.9-3.7-0.3-3.7-2.9c0-1,0-2,0-3
		c0-53.4,0.1-106.9-0.1-160.3c0-4.4,1.3-6.5,5.5-7.8c17-5.2,33.9-10.6,50.9-15.9c21.6-6.7,43.1-13.3,64.7-20.1
		c6.5-2,6.9-1.9,6.8,4.8c0,12.6,0,25.3-0.1,37.9c-0.9,2.3-3.2,2.7-5.2,3.4c-10.2,3.5-20.6,6.5-30.9,9.7c-6.4,2-6.8,2.5-6.8,9.1
		c-0.1,15.8,0,31.6,0,47.4c0,8.1-1,9.4-8.6,11.8c-9.6,3.1-19.5,5.6-29,9c-6.3,2.3-6.3,2.3-6.3,9.3c0,16.1,0,32.3-0.1,48.4
		C51.9,209.7,52.5,212.7,49.9,214.8z" />
		<path class="st3" d="M229,216.7c8.8,4.3,18.6,6,27.8,9.1c1.5,0.5,3.2,0.7,4.9,2.7c-9.5,3.1-18.7,6.1-27.9,9
		c-21.4,6.7-42.8,13.4-64.2,20.1c-7.3,2.3-14.6,4.4-21.8,7c-5.9,2.1-11.4,0.9-17-0.9c-17.2-5.6-34.4-11.1-51.6-16.5
		c-20-6.3-40.1-12.3-61.6-18.9c12-4.6,23.4-6.4,33.6-11.4c2.3-2.1,4.7-0.9,7-0.2c10.3,3.2,20.7,6.4,31,9.6c4.8,1.5,9.3,1.5,14.1,0
		c10.3-3.3,20.6-6.6,30.9-9.7c4-1.2,7.8-1.2,11.7,0c10.3,3.2,20.6,6.5,30.9,9.7c4.8,1.5,9.3,1.5,14.1,0c10.3-3.2,20.6-6.7,31-9.7
		C224.2,216,226.6,214.7,229,216.7z" />
		<path class="st4" d="M229,216.7c-8.8,1.6-17.2,5.1-25.8,7.5c-4.6,1.3-9.2,2.8-13.7,4.4c-4.2,1.5-8.1,0.9-12.1-0.4
		c-11-3.6-22.2-6.9-33.2-10.5c-3.2-1.1-6.1-0.7-9.2,0.3c-8.4,2.7-17.1,4.5-25,8.1c-11.5,5.3-21.8,1.9-32.6-1.5
		c-8.6-2.8-17.1-6.3-26.2-7.7c-0.4-0.7-0.8-1.4-1.2-2c0-20,0.1-40-0.1-59.9c0-3.8,1-5.4,4.9-6.5c11.5-3.2,22.8-7.3,34.3-10.5
		c4.5-1.3,5.4-3.4,5.4-7.7c-0.2-17.3,0-34.6-0.2-51.9c0-4,1.2-5.9,5.1-7.1c13.2-3.9,26.4-8.1,39.5-12.3c0.8,0,1.5,0,2.3,0
		c13.5,4.2,26.9,8.5,40.4,12.5c3.5,1,4.6,2.7,4.6,6.3c-0.2,18.1,0,36.3-0.1,54.4c0,3.1,0.7,4.6,4,5.5c12.1,3.5,24,7.7,36.2,11.1
		c3.6,1,3.8,2.9,3.8,5.8c0,20.1,0,40.2,0,60.4C229.6,215.5,229.3,216.1,229,216.7z" />
		<path class="st5" d="M98.3,195.8c0-8.3,0.1-16.6-0.1-25c-0.1-2.9,0.7-4.6,3.7-5.5c10.8-3.3,21.6-6.7,32.3-10.1
		c2.6-0.8,3.6,0,3.6,2.8c-0.1,17.3-0.1,34.6,0,51.9c0,2.4-0.8,3.4-3.2,4.1c-11,3.2-22,6.6-32.8,10.2c-2.9,1-3.5,0.2-3.5-2.5
		C98.4,213.1,98.3,204.5,98.3,195.8z" />
		<path class="st5" d="M226,184.4c0,8.3,0,16.6,0,24.9c0,2.4-0.3,3.9-3.1,4.7c-11,3.2-22,6.5-32.8,10.1c-3,1-3.7,0.4-3.7-2.6
		c0.1-17.1,0.1-34.3,0-51.4c0-2.6,1-3.9,3.4-4.6c10.9-3.4,21.9-6.8,32.8-10.3c2.6-0.8,3.5,0,3.5,2.8
		C225.9,166.8,226,175.6,226,184.4z" />
		<path class="st6" d="M137.7,118.3c0,8.6-0.1,17.3,0.1,25.9c0.1,3-0.7,3.7-3.7,2.7c-11.1-3.6-22.2-6.9-33.3-10.2
		c-1.8-0.6-2.6-1.5-2.6-3.5c0.1-17.5,0.1-34.9,0-52.4c0-3,1.3-3.2,3.7-2.4c10.7,3.5,21.5,6.9,32.3,10.2c2.8,0.8,3.6,2.1,3.6,4.9
		C137.6,101.6,137.7,110,137.7,118.3z" />
		<path class="st6" d="M93.1,225.1c-12.7-3.9-24.9-7.7-37.1-11.3c-1.8-0.6-2.2-1.7-2.2-3.4c0-17.6,0-35.2,0-52.8
		c0-2.9,1.4-2.9,3.5-2.3c10.9,3.4,21.8,6.9,32.7,10.3c1.6,0.5,3.1,1,3.1,3.3C93.1,187.4,93.1,206,93.1,225.1z" />
		<path class="st6" d="M181.3,195.4c0,8.6,0,17.3,0,25.9c0,2.7-0.2,3.9-3.6,2.8c-10.8-3.6-21.8-6.9-32.8-10.2c-2.1-0.6-3-1.5-3-3.8
		c0.1-17.4,0.1-34.9,0-52.3c0-3,1.2-3.4,3.6-2.6c10.7,3.4,21.5,6.9,32.3,10.1c2.7,0.8,3.5,2.3,3.5,5.1
		C181.2,178.8,181.3,187.1,181.3,195.4z" />
		<path class="st5" d="M142.9,148c0-7.7,0-14.8,0-21.9c0-9.5,0-18.9,0-28.4c0-8.1,0-8.1,7.8-10.6c9.3-3,18.7-5.8,28-8.8
		c2.8-0.9,3.4,0,3.4,2.7c-0.1,17.3,0,34.6,0,51.9c0,1.7,0,3.2-2.1,3.9C167.8,140.3,155.6,144,142.9,148z" />
		<path class="st7" d="M104.8,73.9c11-3.5,22-7.2,33.1-10.6c4.2-1.3,7.7,1.3,11.5,2.4c8.8,2.5,17.5,5.1,27.1,8.9
		c-9.6,3-18.3,5.3-26.6,8.5c-6.9,2.7-13.3,2.3-20.1-0.2c-8.2-3-16.7-5.4-25-8C104.8,74.6,104.8,74.2,104.8,73.9z" />
		<path class="st7" d="M58.6,151.4c9.9-3.1,18.6-5.3,26.9-8.5c7.1-2.7,13.6-2.6,20.6,0.1c8.2,3.1,16.7,5.4,26.5,8.5
		c-12.8,4-24.3,7.7-35.7,11.3c-0.6,0.2-1.4,0.2-1.9,0.1C83.3,159.1,71.6,155.5,58.6,151.4z" />
		<path class="st7" d="M219.1,151.9c-11.3,3.5-22.5,7-33.8,10.5c-1,0.3-1.9,0.6-2.9,0.2c-11.4-3.6-22.8-7.2-35.6-11.3
		c9.7-3.1,18.2-5.3,26.3-8.5c7.2-2.8,13.9-2.7,21.1,0c8.2,3.1,16.7,5.4,25.1,8C219.3,151.3,219.2,151.6,219.1,151.9z" />
	</g>
</svg>
