<?xml version="1.0" encoding="utf-8"?>
<!-- Generator: Adobe Illustrator 28.0.0, SVG Export Plug-In . SVG Version: 6.00 Build 0)  -->
<svg version="1.1" id="Layer_1" xmlns="http://www.w3.org/2000/svg" xmlns:xlink="http://www.w3.org/1999/xlink" x="0px"
	y="0px" viewBox="0 0 160.3 169.5" style="enable-background:new 0 0 160.3 169.5;" xml:space="preserve">
	<style type="text/css">
		.st0 {
			fill: #F26E7E;
		}

		.st1 {
			fill: #8A3391;
		}

		.st2 {
			fill: #F7BF2A;
		}
	</style>
	<path class="st0" d="M27.4,143.7c6.3-3.6,6.3-15.3,0-26.2c-6.3-10.8-16.4-16.7-22.7-13.1s-6.3,15.3,0,26.2
	C11,141.5,21.1,147.4,27.4,143.7z" />
	<path class="st1" d="M155.6,130.7c6.3-10.8,6.2-22.6,0-26.2c-6.3-3.6-16.4,2.2-22.7,13.1c-6.3,10.8-6.2,22.6,0,26.2
	C139.2,147.4,149.4,141.5,155.6,130.7z" />
	<path class="st0" d="M70.1,168.4c6.3-3.6,6.3-15.3,0-26.2c-6.3-10.8-16.4-16.7-22.7-13.1c-6.3,3.6-6.3,15.3,0,26.2
	C53.7,166.2,63.8,172.1,70.1,168.4z" />
	<path class="st1" d="M112.9,155.4c6.3-10.8,6.2-22.6,0-26.2c-6.3-3.6-16.4,2.2-22.7,13.1c-6.3,10.8-6.2,22.6,0,26.2
	C96.5,172,106.6,166.2,112.9,155.4z" />
	<path class="st2"
		d="M80.1,26.2c12.5,0,22.7-5.9,22.7-13.1S92.6,0,80.1,0C67.6,0,57.5,5.9,57.5,13.1S67.6,26.2,80.1,26.2z" />
	<path class="st0" d="M27.4,94.4c6.3-3.6,6.3-15.3,0-26.2C21.1,57.4,11,51.5,4.7,55.1c-6.3,3.6-6.3,15.3,0,26.2
	C10.9,92.1,21.1,98,27.4,94.4z" />
	<path class="st2" d="M37.4,50.9c12.5,0,22.7-5.9,22.7-13.1c0-7.2-10.1-13.1-22.7-13.1c-12.5,0-22.7,5.9-22.7,13.1
	C14.8,45,24.9,50.9,37.4,50.9z" />
	<path class="st1" d="M155.6,81.3c6.3-10.8,6.2-22.6,0-26.2c-6.3-3.6-16.4,2.2-22.7,13.1c-6.3,10.8-6.2,22.6,0,26.2
	C139.2,98,149.3,92.2,155.6,81.3z" />
	<path class="st2" d="M122.9,50.9c12.5,0,22.7-5.9,22.7-13.1c0-7.2-10.1-13.1-22.7-13.1s-22.7,5.9-22.7,13.1
	C100.2,45,110.4,50.9,122.9,50.9z" />
	<path class="st0" d="M70.1,119.1c6.3-3.6,6.3-15.3,0-26.2c-6.3-10.8-16.4-16.7-22.7-13.1c-6.3,3.6-6.3,15.3,0,26.2
	C53.7,116.8,63.8,122.7,70.1,119.1z" />
	<path class="st1" d="M112.9,106c6.3-10.8,6.2-22.6,0-26.2c-6.3-3.6-16.4,2.2-22.7,13.1c-6.3,10.8-6.2,22.6,0,26.2
	C96.5,122.7,106.6,116.8,112.9,106z" />
	<path class="st2" d="M80.1,75.5c12.5,0,22.7-5.9,22.7-13.1c0-7.2-10.1-13.1-22.7-13.1c-12.5,0-22.7,5.9-22.7,13.1
	C57.5,69.7,67.6,75.5,80.1,75.5z" />
</svg>
